<svg width="57" height="23" viewBox="0 0 57 23" fill="none" xmlns="http://www.w3.org/2000/svg">
<path d="M0.80906 15.5284C1.34843 14.9351 1.99568 14.4496 2.48112 13.8024C6.6343 8.03109 12.5674 5.17241 19.1478 3.60822C21.4131 3.06885 24.0021 3.12279 26.3214 3.60822C32.9557 4.90272 38.9967 7.65352 44.2286 11.9685C45.7389 13.2091 47.0334 14.7733 48.1121 16.5532C47.5188 16.3374 46.8716 16.1217 46.2783 15.852C44.5523 15.0969 42.8263 14.2878 41.0463 13.6406C40.2912 13.3709 39.3743 13.3709 38.5113 13.4248C38.1876 13.4248 37.7022 13.9103 37.6483 14.2339C37.5943 14.5575 37.918 15.1508 38.1877 15.2048C42.7723 16.6071 46.7637 19.304 50.9169 21.6233C52.3732 22.4324 53.2901 22.2166 53.9374 20.7603C55.5015 17.1465 56.2027 13.3169 56.0949 9.37952C56.0949 9.27165 55.8791 9.10983 55.5555 8.78621C52.3732 9.97283 53.3441 13.4248 51.7799 16.1756C51.4023 15.5284 51.1326 14.989 50.809 14.5575C44.0129 6.19722 35.0053 1.77435 24.5415 0.156231C22.9773 -0.113455 21.2513 -0.0055809 19.6332 0.264107C13.7001 1.28892 8.41423 3.77003 4.0453 7.92321C2.64293 9.27165 1.61812 11.0516 0.593311 12.7236C0.161812 13.3709 0.161812 14.2878 0 15.0429C0.269687 15.2048 0.539374 15.3666 0.80906 15.5284Z" fill="url(#paint0_linear_73_325)"/>
<defs>
<linearGradient id="paint0_linear_73_325" x1="69.8526" y1="29.6869" x2="28.9389" y2="-36.3821" gradientUnits="userSpaceOnUse">
<stop offset="0.137978" stop-color="#FB8E00"/>
<stop offset="0.484154" stop-color="#FFE500"/>
<stop offset="0.767709" stop-color="#823AFF"/>
</linearGradient>
</defs>
</svg>
