<svg width="16" height="15" viewBox="0 0 16 15" fill="none" xmlns="http://www.w3.org/2000/svg">
<path d="M16 10.457C16.0003 10.481 15.9937 10.5046 15.9812 10.5249C15.9687 10.5451 15.9508 10.561 15.9297 10.5707C15.6669 10.6868 14.7725 11.1171 14.4004 11.6544C13.4509 13.0309 12.7262 15 11.104 15H4.34014C3.76906 14.9991 3.20375 14.881 2.67651 14.6525C2.14926 14.4239 1.67043 14.0894 1.26737 13.668C0.864307 13.2466 0.54492 12.7467 0.327461 12.1967C0.110001 11.6467 -0.00126858 11.0574 1.09104e-05 10.4626V10.3815C1.09104e-05 10.3162 0.0519236 10.2621 0.116815 10.2621H3.88591C3.96161 10.2621 4.01569 10.3331 4.01028 10.4108C3.98216 10.6654 4.02867 10.9278 4.14547 11.1655C4.36826 11.6386 4.83332 11.9338 5.33406 11.9338H7.20076V10.4164H5.35353C5.33188 10.4162 5.31071 10.4098 5.29229 10.3979C5.27387 10.3861 5.2589 10.3692 5.249 10.3492C5.2391 10.3292 5.23463 10.3067 5.23609 10.2842C5.23755 10.2617 5.24487 10.24 5.25727 10.2215L5.32541 10.1202C5.49845 9.85995 5.74828 9.46005 5.99703 9.0027C6.16575 8.69405 6.33014 8.36513 6.46208 8.03395C6.48804 7.97537 6.50859 7.91341 6.53238 7.85371C6.56807 7.74782 6.60484 7.64869 6.6308 7.55069C6.65627 7.46759 6.67971 7.38383 6.7011 7.29949C6.76274 7.01787 6.7887 6.72049 6.7887 6.41296C6.7887 6.29131 6.78438 6.16402 6.77356 6.04461C6.76815 5.91281 6.75193 5.77989 6.73679 5.64809C6.72469 5.53017 6.70737 5.41289 6.68488 5.29664C6.65577 5.11961 6.62042 4.94377 6.57889 4.76945L6.56375 4.70186C6.5313 4.58021 6.50318 4.46531 6.46641 4.34477C6.36343 3.97463 6.24507 3.60931 6.11167 3.24985C6.06519 3.11464 6.01397 2.98125 5.9581 2.84996C5.88023 2.64945 5.80019 2.46809 5.72773 2.29799C5.69168 2.22512 5.65777 2.15111 5.62607 2.07608C5.59089 1.99513 5.55375 1.91512 5.51467 1.83614C5.48872 1.77644 5.45735 1.71899 5.4368 1.66492L5.2086 1.22785C5.17724 1.16815 5.22915 1.09493 5.29188 1.11408L6.71948 1.51622H6.7303L6.9174 1.57255L7.12505 1.63338L7.20076 1.65478V0.772757C7.20076 0.345827 7.52738 2.69093e-06 7.93511 2.69093e-06C8.03139 -0.000267099 8.12672 0.0197525 8.21538 0.0588571C8.30404 0.0979618 8.38418 0.155343 8.45099 0.227548C8.58908 0.372617 8.66679 0.568476 8.6673 0.772757V2.08396L8.81979 2.12789C8.83061 2.13353 8.84359 2.13916 8.85332 2.14704C8.89009 2.17408 8.94417 2.21688 9.0123 2.27095C9.06638 2.31376 9.1237 2.36783 9.19075 2.42528C9.40432 2.60651 9.61139 2.79588 9.81155 2.99302C10.043 3.21718 10.3026 3.47965 10.5513 3.7714C10.6216 3.85476 10.6887 3.93587 10.759 4.02599C10.826 4.11498 10.9017 4.20171 10.9644 4.28733C11.0499 4.40448 11.1375 4.52614 11.2186 4.6523C11.2543 4.712 11.2986 4.77396 11.3322 4.83366C11.436 4.99362 11.5247 5.15808 11.6101 5.32367C11.6469 5.39915 11.6826 5.4825 11.7139 5.56361C11.8102 5.78552 11.8859 6.00969 11.9324 6.23724C11.9478 6.28553 11.9583 6.33536 11.9638 6.38593V6.39719C11.9789 6.4614 11.9843 6.53237 11.9897 6.60446C12.0202 6.93741 11.9811 7.27328 11.8751 7.58899C11.8416 7.68361 11.8102 7.78049 11.7691 7.87511C11.688 8.06661 11.595 8.26149 11.4836 8.4406C11.4468 8.50819 11.4025 8.57803 11.3614 8.64562C11.3149 8.71658 11.2651 8.78417 11.224 8.84838C11.1645 8.93368 11.1021 9.01672 11.0369 9.09733C10.9796 9.17843 10.9223 9.25954 10.8574 9.33276C10.7698 9.44315 10.6843 9.54679 10.5924 9.64592C10.5405 9.71125 10.4843 9.77884 10.4237 9.83742C10.3674 9.905 10.3069 9.96471 10.255 10.0188C10.1641 10.1134 10.0927 10.1844 10.03 10.2463L9.88184 10.3837C9.86121 10.4053 9.8332 10.4175 9.80397 10.4175H8.6673V11.9338H10.0971C10.4161 11.9338 10.72 11.8166 10.9666 11.5981L10.9695 11.5954C11.0581 11.5152 11.4203 11.187 11.8491 10.6947C11.8633 10.6777 11.8822 10.6659 11.9032 10.6609L15.8507 9.47019C15.8681 9.46497 15.8863 9.464 15.9041 9.46736C15.9218 9.47072 15.9386 9.47832 15.9531 9.48956C15.9675 9.5008 15.9793 9.51538 15.9874 9.53215C15.9956 9.54892 15.9999 9.56742 16 9.58621V10.457Z" fill="white"/>
<path d="M0.951747 8.56451L1.0069 8.47327L4.38449 2.97162C4.3958 2.95353 4.41157 2.93894 4.43014 2.92937C4.44872 2.9198 4.46942 2.9156 4.49009 2.91722C4.51075 2.91883 4.53062 2.92619 4.54762 2.93853C4.56462 2.95088 4.57813 2.96775 4.58673 2.98739C5.14912 4.30422 5.63797 5.9421 5.40868 6.96155C5.31351 7.3806 5.04638 7.94833 4.74463 8.47327C4.70592 8.55005 4.66369 8.62486 4.61809 8.69743C4.60717 8.71362 4.59256 8.72673 4.57557 8.73557C4.55858 8.74442 4.53974 8.74874 4.52076 8.74812H1.05233C1.03163 8.74846 1.01122 8.74294 0.993287 8.73217C0.975351 8.7214 0.960551 8.70577 0.950458 8.68694C0.940366 8.66811 0.935357 8.64678 0.935965 8.62523C0.936573 8.60367 0.942774 8.58269 0.95391 8.56451H0.951747Z" fill="white"/>
</svg>
