<svg width="17" height="15" viewBox="0 0 17 15" fill="none" xmlns="http://www.w3.org/2000/svg">
<path fill-rule="evenodd" clip-rule="evenodd" d="M5.62194 0.0979227C3.91711 0.765712 4.2012 4.24319 6.02555 5.03829C6.43375 5.21614 6.56552 5.22967 6.9074 5.12879C8.65054 4.61431 8.37838 1.00407 6.53422 0.17888C6.04226 -0.0412348 5.98926 -0.0459541 5.62194 0.0979227ZM10.6943 0.133053C10.1737 0.316255 9.87011 0.599185 9.53025 1.2179C8.73973 2.65687 9.01009 4.47547 10.1007 5.0558C10.9076 5.48523 11.9564 4.83181 12.4201 3.61074C12.7132 2.83903 12.7253 1.6813 12.4468 1.07717C12.265 0.682658 11.6805 0.085234 11.4766 0.085234C11.4273 0.085234 11.3232 0.0636315 11.2453 0.0372051C11.1673 0.0107788 10.9194 0.053879 10.6943 0.133053ZM14.8714 2.80495C13.9595 3.29383 13.3825 4.30926 13.3074 5.55696C13.2673 6.22548 13.297 6.4393 13.4828 6.81756C13.9847 7.83885 15.1174 7.90943 16.0286 6.97611C17.1311 5.84712 17.3373 3.76059 16.4294 2.9203C16.0723 2.58976 15.3698 2.53775 14.8714 2.80495ZM0.879573 3.65206C0.0283845 3.91097 -0.245056 4.81943 0.236365 5.78882C1.31714 7.96522 4.77043 8.39307 4.77043 6.35059C4.77043 5.85646 4.30476 4.99267 3.79258 4.53682C2.97183 3.80621 1.67116 3.41118 0.879573 3.65206ZM8.13687 5.75295C7.491 5.91277 6.35775 6.54302 5.63982 7.14149C3.9879 8.5186 2.96098 10.3839 2.96098 12.0074C2.96098 12.8811 3.10243 13.2937 3.65709 14.0382C4.42781 15.0726 5.13445 15.2219 6.3223 14.601C7.87982 13.7869 8.89184 13.5531 10.1373 13.7196C10.7226 13.7979 11.1767 13.9621 12.1733 14.4561C13.6573 15.1917 13.728 15.1898 14.4357 14.3977C15.8177 12.8509 15.5386 10.5816 13.684 8.28391C12.9807 7.41246 12.0471 6.67441 10.9924 6.15595C10.2766 5.80413 10.0059 5.7282 9.3426 5.69297C8.9061 5.66979 8.36347 5.69685 8.13687 5.75295Z" fill="white"/>
</svg>
