<svg width="55" height="54" viewBox="0 0 55 54" fill="none" xmlns="http://www.w3.org/2000/svg">
<circle cx="27.7059" cy="27" r="26.2059" fill="white" stroke="url(#paint0_linear_73_418)" stroke-width="1.58824"/>
<path d="M31.9267 15.4512C31.6313 15.9802 31.368 16.5265 31.1384 17.0872C28.8818 16.7303 26.5831 16.7303 24.3265 17.0872C24.0969 16.5265 23.8336 15.9802 23.5383 15.4512C21.4126 15.8144 19.3461 16.4648 17.3957 17.3847C13.9079 22.4181 12.3261 28.529 12.9338 34.6225C15.2067 36.3312 17.7578 37.6344 20.4744 38.4747C21.093 37.6575 21.6451 36.7921 22.1253 35.8867C21.239 35.56 20.3871 35.1465 19.582 34.6523C19.8028 34.5054 20.0117 34.3412 20.2067 34.1615C22.5543 35.2923 25.1267 35.8795 27.7325 35.8795C30.3383 35.8795 32.9106 35.2923 35.2582 34.1615C35.4664 34.3399 35.6747 34.5036 35.8829 34.6523C35.0734 35.1426 34.2224 35.5606 33.3396 35.9016C33.7999 36.8275 34.3373 37.7131 34.9459 38.549C37.6591 37.7117 40.2058 36.4082 42.4717 34.6969C43.0939 28.6022 41.5109 22.4864 38.0097 17.459C36.0812 16.5202 34.0352 15.8448 31.9267 15.4512ZM22.7946 31.1422C22.0503 31.0888 21.3557 30.7491 20.8565 30.1945C20.3574 29.6399 20.0925 28.9134 20.1175 28.1676C20.0887 27.4209 20.3523 26.6923 20.8522 26.1369C21.3521 25.5814 22.049 25.2428 22.7946 25.193C23.5403 25.2428 24.2371 25.5814 24.737 26.1369C25.2369 26.6923 25.5005 27.4209 25.4718 28.1676C25.5005 28.9144 25.2369 29.6429 24.737 30.1984C24.2371 30.7538 23.5403 31.0925 22.7946 31.1422ZM32.6703 31.1422C31.926 31.0888 31.2314 30.7491 30.7322 30.1945C30.2331 29.6399 29.9682 28.9134 29.9932 28.1676C29.9644 27.4209 30.228 26.6923 30.7279 26.1369C31.2278 25.5814 31.9247 25.2428 32.6703 25.193C33.4173 25.2391 34.1164 25.5766 34.6171 26.1329C35.1178 26.6892 35.3801 27.4199 35.3475 28.1676C35.3801 28.9154 35.1178 29.646 34.6171 30.2023C34.1164 30.7587 33.4173 31.0962 32.6703 31.1422Z" fill="url(#paint1_linear_73_418)"/>
<defs>
<linearGradient id="paint0_linear_73_418" x1="65.8236" y1="-3.75" x2="-16.6222" y2="50.4334" gradientUnits="userSpaceOnUse">
<stop offset="0.16133" stop-color="#FB8E00"/>
<stop offset="0.851111" stop-color="#823AFF"/>
</linearGradient>
<linearGradient id="paint1_linear_73_418" x1="48.739" y1="13.8472" x2="10.8385" y2="45.9802" gradientUnits="userSpaceOnUse">
<stop offset="0.16133" stop-color="#FB8E00"/>
<stop offset="0.851111" stop-color="#823AFF"/>
</linearGradient>
</defs>
</svg>
