<svg width="55" height="54" viewBox="0 0 55 54" fill="none" xmlns="http://www.w3.org/2000/svg">
<circle cx="27.7649" cy="27" r="26.2059" fill="white" stroke="url(#paint0_linear_73_412)" stroke-width="1.58824"/>
<path d="M42.6362 31.0257C42.6367 31.0666 42.6246 31.1067 42.6014 31.1411C42.5781 31.1754 42.5448 31.2026 42.5055 31.2191C42.017 31.4163 40.3544 32.1476 39.6628 33.0608C37.8976 35.4004 36.5506 38.747 33.5349 38.747H20.9615C19.8999 38.7455 18.849 38.5448 17.8689 38.1563C16.8888 37.7679 15.9987 37.1993 15.2494 36.4832C14.5002 35.767 13.9065 34.9172 13.5022 33.9824C13.098 33.0477 12.8911 32.0462 12.8935 31.0353V30.8974C12.8935 30.7864 12.99 30.6945 13.1106 30.6945H20.1171C20.2578 30.6945 20.3583 30.8151 20.3483 30.9472C20.296 31.3799 20.3825 31.826 20.5996 32.2299C21.0138 33.034 21.8783 33.5356 22.8091 33.5356H26.2791V30.9568H22.8453C22.805 30.9564 22.7657 30.9455 22.7314 30.9254C22.6972 30.9052 22.6694 30.8766 22.651 30.8425C22.6326 30.8084 22.6243 30.7702 22.627 30.732C22.6297 30.6938 22.6433 30.657 22.6664 30.6256L22.793 30.4533C23.1147 30.011 23.5791 29.3313 24.0415 28.554C24.3551 28.0295 24.6607 27.4704 24.906 26.9076C24.9543 26.808 24.9924 26.7027 25.0367 26.6012C25.103 26.4213 25.1714 26.2528 25.2196 26.0862C25.267 25.945 25.3106 25.8026 25.3503 25.6593C25.4649 25.1807 25.5132 24.6752 25.5132 24.1526C25.5132 23.9458 25.5051 23.7294 25.485 23.5265C25.475 23.3025 25.4448 23.0766 25.4167 22.8526C25.3942 22.6522 25.362 22.4529 25.3202 22.2553C25.2661 21.9544 25.2003 21.6555 25.1231 21.3593L25.095 21.2444C25.0347 21.0376 24.9824 20.8423 24.914 20.6375C24.7226 20.0084 24.5026 19.3875 24.2546 18.7766C24.1682 18.5468 24.073 18.3201 23.9691 18.0969C23.8244 17.7561 23.6756 17.4479 23.5409 17.1588C23.4739 17.035 23.4109 16.9092 23.3519 16.7816C23.2865 16.6441 23.2175 16.5081 23.1448 16.3738C23.0966 16.2724 23.0383 16.1747 23.0001 16.0828L22.5759 15.34C22.5176 15.2385 22.6141 15.1141 22.7307 15.1466L25.3845 15.8301H25.4046L25.7524 15.9259L26.1384 16.0292L26.2791 16.0656V14.5665C26.2791 13.8409 26.8863 13.2532 27.6442 13.2532C27.8232 13.2527 28.0004 13.2867 28.1652 13.3532C28.3301 13.4197 28.479 13.5172 28.6032 13.6399C28.8599 13.8865 29.0044 14.2193 29.0053 14.5665V16.795L29.2888 16.8697C29.3089 16.8793 29.333 16.8889 29.3511 16.9023C29.4195 16.9482 29.52 17.021 29.6467 17.1129C29.7472 17.1856 29.8537 17.2775 29.9784 17.3751C30.3754 17.6832 30.7603 18.005 31.1324 18.3401C31.5626 18.7211 32.0451 19.1671 32.5075 19.663C32.6382 19.8047 32.7629 19.9425 32.8936 20.0957C33.0182 20.2469 33.1589 20.3943 33.2755 20.5399C33.4344 20.739 33.5972 20.9457 33.748 21.1602C33.8143 21.2616 33.8968 21.3669 33.9591 21.4684C34.1521 21.7403 34.317 22.0198 34.4758 22.3012C34.5441 22.4295 34.6105 22.5712 34.6688 22.709C34.8477 23.0862 34.9884 23.4672 35.0749 23.8539C35.1035 23.936 35.123 24.0207 35.1332 24.1066V24.1258C35.1613 24.2349 35.1714 24.3555 35.1815 24.478C35.2381 25.0439 35.1654 25.6147 34.9683 26.1513C34.906 26.3121 34.8477 26.4768 34.7713 26.6376C34.6205 26.9631 34.4476 27.2943 34.2406 27.5987C34.1722 27.7136 34.0898 27.8323 34.0134 27.9471C33.9269 28.0678 33.8344 28.1826 33.758 28.2918C33.6475 28.4367 33.5315 28.5779 33.4102 28.7149C33.3037 28.8527 33.1971 28.9906 33.0765 29.115C32.9137 29.3026 32.7548 29.4788 32.5839 29.6472C32.4874 29.7583 32.3829 29.8731 32.2703 29.9727C32.1658 30.0876 32.0532 30.189 31.9567 30.2809C31.7878 30.4418 31.6551 30.5624 31.5385 30.6677L31.2631 30.9012C31.2247 30.9379 31.1727 30.9586 31.1183 30.9587H29.0053V33.5356H31.6632C32.2562 33.5356 32.8212 33.3365 33.2796 32.9651L33.285 32.9606C33.4496 32.8242 34.1229 32.2664 34.9201 31.4297C34.9464 31.4008 34.9816 31.3807 35.0206 31.3722L42.3588 29.3486C42.391 29.3397 42.4249 29.3381 42.4579 29.3438C42.4909 29.3495 42.5221 29.3624 42.549 29.3815C42.5759 29.4006 42.5977 29.4254 42.6129 29.4539C42.628 29.4824 42.636 29.5138 42.6362 29.5458V31.0257Z" fill="url(#paint1_linear_73_412)"/>
<path d="M14.6627 27.8093L14.7653 27.6542L21.0439 18.3037C21.0649 18.273 21.0942 18.2482 21.1288 18.2319C21.1633 18.2156 21.2018 18.2085 21.2402 18.2112C21.2786 18.214 21.3156 18.2265 21.3472 18.2475C21.3788 18.2684 21.4039 18.2971 21.4199 18.3305C22.4653 20.5686 23.374 23.3523 22.9478 25.0849C22.7709 25.7971 22.2743 26.762 21.7134 27.6542C21.6414 27.7847 21.5629 27.9119 21.4782 28.0352C21.4579 28.0627 21.4307 28.085 21.3991 28.1C21.3675 28.1151 21.3325 28.1224 21.2972 28.1214H14.8497C14.8112 28.1219 14.7733 28.1126 14.7399 28.0942C14.7066 28.0759 14.6791 28.0494 14.6603 28.0174C14.6416 27.9854 14.6322 27.9491 14.6334 27.9125C14.6345 27.8759 14.646 27.8402 14.6667 27.8093H14.6627Z" fill="url(#paint2_linear_73_412)"/>
<defs>
<linearGradient id="paint0_linear_73_412" x1="65.8825" y1="-3.75" x2="-16.5632" y2="50.4334" gradientUnits="userSpaceOnUse">
<stop offset="0.16133" stop-color="#FB8E00"/>
<stop offset="0.851111" stop-color="#823AFF"/>
</linearGradient>
<linearGradient id="paint1_linear_73_412" x1="48.7598" y1="11.4828" x2="7.80971" y2="42.8806" gradientUnits="userSpaceOnUse">
<stop offset="0.16133" stop-color="#FB8E00"/>
<stop offset="0.851111" stop-color="#823AFF"/>
</linearGradient>
<linearGradient id="paint2_linear_73_412" x1="48.7598" y1="11.4828" x2="7.80971" y2="42.8806" gradientUnits="userSpaceOnUse">
<stop offset="0.16133" stop-color="#FB8E00"/>
<stop offset="0.851111" stop-color="#823AFF"/>
</linearGradient>
</defs>
</svg>
