<svg width="55" height="54" viewBox="0 0 55 54" fill="none" xmlns="http://www.w3.org/2000/svg">
<circle cx="27.2354" cy="27" r="26.2059" fill="white" stroke="url(#paint0_linear_73_415)" stroke-width="1.58824"/>
<path d="M38.0503 15.6158L11.6077 25.8125C9.80314 26.5373 9.81358 27.544 11.2767 27.9929L18.0655 30.1107L33.773 20.2004C34.5157 19.7485 35.1943 19.9916 34.6365 20.4867L21.9104 31.972H21.9074L21.9104 31.9735L21.4421 38.9712C22.1281 38.9712 22.4309 38.6565 22.8156 38.2851L26.1131 35.0786L32.9721 40.1449C34.2368 40.8414 35.1451 40.4835 35.4598 38.9742L39.9623 17.7545C40.4232 15.9066 39.2569 15.0699 38.0503 15.6158Z" fill="url(#paint1_linear_73_415)"/>
<defs>
<linearGradient id="paint0_linear_73_415" x1="65.353" y1="-3.75" x2="-17.0928" y2="50.4334" gradientUnits="userSpaceOnUse">
<stop offset="0.16133" stop-color="#FB8E00"/>
<stop offset="0.851111" stop-color="#823AFF"/>
</linearGradient>
<linearGradient id="paint1_linear_73_415" x1="46.2111" y1="13.7126" x2="5.77836" y2="45.3968" gradientUnits="userSpaceOnUse">
<stop offset="0.16133" stop-color="#FB8E00"/>
<stop offset="0.851111" stop-color="#823AFF"/>
</linearGradient>
</defs>
</svg>
