<svg width="55" height="54" viewBox="0 0 55 54" fill="none" xmlns="http://www.w3.org/2000/svg">
<circle cx="27.2942" cy="27" r="26.2059" fill="white" stroke="url(#paint0_linear_73_409)" stroke-width="1.58824"/>
<path d="M43.1474 17.0808C41.9561 17.6079 40.6944 17.9561 39.4026 18.1141C40.7643 17.2913 41.7837 15.9998 42.2721 14.4785C40.9841 15.2305 39.5823 15.7645 38.1225 16.0595C37.1409 15.0036 35.8405 14.3034 34.4232 14.0675C33.0058 13.8316 31.5508 14.0731 30.2837 14.7547C29.0167 15.4362 28.0085 16.5197 27.4156 17.837C26.8227 19.1542 26.6783 20.6316 27.0047 22.04C21.581 21.7847 16.773 19.1614 13.5574 15.1984C12.972 16.2006 12.6659 17.343 12.6711 18.5056C12.6703 19.5863 12.9347 20.6505 13.4406 21.6036C13.9466 22.5568 14.6785 23.3694 15.5715 23.9694C14.5367 23.9379 13.5244 23.6574 12.6194 23.1514V23.2305C12.6191 24.7474 13.1398 26.2178 14.0933 27.3924C15.0468 28.567 16.3744 29.3736 17.8511 29.6756C17.2918 29.826 16.7154 29.9031 16.1364 29.9048C15.7177 29.9048 15.3178 29.8638 14.919 29.7897C15.3393 31.0951 16.1533 32.236 17.2479 33.0538C18.3425 33.8716 19.6631 34.3256 21.026 34.3524C18.7169 36.1728 15.8677 37.1604 12.9347 37.1569C12.4152 37.159 11.8961 37.1296 11.3801 37.0688C14.372 38.9987 17.8515 40.0232 21.4049 40.0205C33.407 40.0205 39.9656 30.013 39.9656 21.3461C39.9656 21.0698 39.9656 20.7884 39.9447 20.5061C41.2276 19.5804 42.3333 18.4284 43.208 17.1058L43.1474 17.0808Z" fill="url(#paint1_linear_73_409)"/>
<defs>
<linearGradient id="paint0_linear_73_409" x1="65.4118" y1="-3.75" x2="-17.0339" y2="50.4334" gradientUnits="userSpaceOnUse">
<stop offset="0.16133" stop-color="#FB8E00"/>
<stop offset="0.851111" stop-color="#823AFF"/>
</linearGradient>
<linearGradient id="paint1_linear_73_409" x1="49.7609" y1="12.1711" x2="7.46674" y2="46.1436" gradientUnits="userSpaceOnUse">
<stop offset="0.16133" stop-color="#FB8E00"/>
<stop offset="0.851111" stop-color="#823AFF"/>
</linearGradient>
</defs>
</svg>
